<?xml version="1.0" standalone="no"?>
<!DOCTYPE svg PUBLIC "-//W3C//DTD SVG 20010904//EN"
 "http://www.w3.org/TR/2001/REC-SVG-20010904/DTD/svg10.dtd">
<svg version="1.0" xmlns="http://www.w3.org/2000/svg"
 width="150.000000pt" height="150.000000pt" viewBox="0 0 150.000000 150.000000"
 preserveAspectRatio="xMidYMid meet">
<metadata>
Created by potrace 1.14, written by Peter Selinger 2001-2017
</metadata>
<g transform="translate(0.000000,150.000000) scale(0.100000,-0.100000)"
fill="#000000" stroke="none">
<path d="M704 1311 c-193 -52 -432 -193 -482 -285 -14 -26 -17 -59 -16 -216 0
-263 34 -445 91 -489 72 -57 329 -104 572 -105 l173 -1 40 45 c56 63 149 224
205 355 36 86 47 126 51 180 4 68 3 71 -36 130 -85 125 -244 287 -360 363 -67
45 -133 51 -238 23z m229 -43 c72 -45 247 -217 318 -311 59 -79 70 -101 45
-91 -7 3 -58 13 -113 23 l-101 18 -11 -37 c-17 -56 -114 -249 -154 -303 l-34
-48 38 -77 c22 -42 39 -85 39 -95 0 -36 26 -10 100 101 85 127 103 152 95 135
-7 -16 -6 -16 33 -2 18 6 35 22 42 40 7 16 16 32 21 35 10 6 -12 -49 -48 -121
-44 -87 -120 -209 -156 -248 -32 -35 -38 -37 -88 -35 -51 1 -52 2 -11 5 24 2
42 8 40 13 -2 4 -37 58 -78 119 l-75 110 -65 1 c-104 1 -279 27 -381 56 -17 5
-42 -50 -79 -170 l-13 -39 -13 33 c-8 18 -14 37 -14 44 1 6 7 -2 13 -18 l13
-30 13 60 c7 32 19 80 26 106 10 38 10 59 -2 120 -9 41 -16 136 -17 220 l-1
148 -25 1 c-21 1 -18 4 20 21 25 11 62 34 83 51 52 41 194 113 261 132 30 9
79 29 108 46 65 36 98 34 171 -13z"/>
<path d="M346 1033 c-3 -3 -6 -22 -5 -42 1 -33 2 -34 9 -11 7 22 8 20 9 -14 1
-45 31 -146 43 -146 4 0 8 -7 8 -15 0 -23 109 -104 161 -119 152 -46 310 -17
372 66 49 67 49 66 -86 66 -218 0 -393 67 -476 183 -16 21 -31 35 -35 32z"/>
<path d="M1000 819 c-7 -11 -10 -23 -7 -25 2 -2 9 7 15 21 14 30 7 33 -8 4z"/>
<path d="M962 735 c-12 -25 -20 -45 -17 -45 7 0 47 81 43 86 -3 2 -14 -17 -26
-41z"/>
<path d="M920 660 c-6 -11 -8 -20 -6 -20 3 0 10 9 16 20 6 11 8 20 6 20 -3 0
-10 -9 -16 -20z"/>
</g>
</svg>
